PathFileType	4	(X/Y/Z)	pose2sim_0-693.trc
DataRate	CameraRate	NumFrames	NumMarkers	Units	OrigDataRate	OrigDataStartFrame	OrigNumFrames
50	50	9	22	m	50	433	694
Frame#	Time	Hip			RHip			RKnee			RAnkle			RBigToe			RSmallToe			RHeel			LHip			LKnee			LAnkle			LBigToe			LSmallToe			LHeel			Neck			Head			Nose			RShoulder			RElbow			RWrist			LShoulder			LElbow			LWrist			
		X1	Y1	Z1	X2	Y2	Z2	X3	Y3	Z3	X4	Y4	Z4	X5	Y5	Z5	X6	Y6	Z6	X7	Y7	Z7	X8	Y8	Z8	X9	Y9	Z9	X10	Y10	Z10	X11	Y11	Z11	X12	Y12	Z12	X13	Y13	Z13	X14	Y14	Z14	X15	Y15	Z15	X16	Y16	Z16	X17	Y17	Z17	X18	Y18	Z18	X19	Y19	Z19	X20	Y20	Z20	X21	Y21	Z21	X22	Y22	Z22	
433	8.66	0.14767473423684832	0.8998018646828965	-0.08767391337683678	0.04383513015997928	0.8904221913748318	-0.08723531974815595	0.010414708055490322	0.4939682095186495	-0.12067049225994744	-0.025581093937128957	0.10102408110491237	-0.14209119229751072	-0.0832599270281811	0.05550431852602741	0.05787016922265392	-0.11394265896425708	0.05558031201540808	-0.010206164872321517	-0.013043119371983864	0.05892901826136219	-0.18519741466966327	0.25427304653372246	0.8892100323579631	-0.0806906342736063	0.2879936667126244	0.4899709400736643	-0.1212156155488769	0.3160784539862569	0.09710390586591648	-0.13718077282534025	0.362164441796914	0.05075738447490072	0.04932013220307964	0.3938358197632272	0.0533441415550501	-0.010594193715480638	0.29987500533147654	0.05233283348379366	-0.17376726586551647	0.1579838674208291	1.4806869119219863	-0.07880822776749988	0.16521435281606625	1.71308120481176	-0.04901985761009828	0.15630386367907062	1.5996980188692604	0.054514133678418814	0.0007623996882557104	1.3788985239177967	-0.09688114930411146	-0.06465216659702254	1.119240401141381	-0.11879737839977682	-0.18433348582012982	0.9566689652031927	-0.009013454197481651	0.3162391405295544	1.3789904000526407	-0.08979447080675067	0.3844547917101471	1.1285227374438482	-0.0792360960249757	0.48266161192344764	0.9785879668726526	0.06371117526285137
434	8.68	0.14848172456666425	0.9013733827048036	-0.08917637866908606	0.044745356834138904	0.8904487676485102	-0.08939780616658626	0.008577851685093297	0.49607510654154113	-0.1266494691492244	-0.02422142176638654	0.10146509100792599	-0.14503112707409835	-0.08312687307156133	0.05265677188057328	0.04185898944818446	-0.11142133866933895	0.05711915366500376	-0.022532803920969756	-0.012251072310503026	0.05927692004840832	-0.18752125532972164	0.2533610861995102	0.8907566018186652	-0.08502170780483398	0.28824792204735444	0.49418601688454755	-0.11895804820822145	0.3163291406501878	0.10018924219720596	-0.13609753335976085	0.36035201279691587	0.05303267005630032	0.04305422369149423	0.394793736819857	0.056661159494517985	-0.011396415520774224	0.3015613857891575	0.0529609786298128	-0.17512797894647478	0.15723021862524944	1.4785405129243294	-0.0768663963625424	0.16577263517700686	1.710120677052093	-0.04439688916379003	0.15458172499415326	1.5970206773035867	0.053599091629741545	0.0021152899383665557	1.3810095000535052	-0.10478001093603624	-0.06051182917074244	1.1237119342283224	-0.115106749468681	-0.1780536410195392	0.9799781880636633	0.018296989585949316	0.3133847021729782	1.3786168183288887	-0.09796097421074017	0.3826841186889524	1.1353476123279485	-0.08978949471732638	0.47449259198111404	1.0001173904265879	0.0767790116092038
435	8.7	0.14877393177550277	0.9012911859007497	-0.08816613410442818	0.045184521266419676	0.8920405748004161	-0.09327314242433618	0.009221244127346664	0.4967655567978581	-0.12586755278493383	-0.024983601463844964	0.09885011485873862	-0.14855616401461508	-0.08068416367471608	0.05235745899602194	0.0523462814762735	-0.11312850431615148	0.056517367625495425	-0.019994016728687617	-0.014007222404187832	0.059689097535723025	-0.18890109552390932	0.2543957741470084	0.8936061319437817	-0.08162265945555715	0.2892170561267998	0.4937388500324079	-0.11676188145101839	0.3160091199831168	0.09907477981485267	-0.13561851795213803	0.3580944500088824	0.05040244969614057	0.04981505963457865	0.3948460094285866	0.05475040196305735	-0.009487131339461519	0.30017261090737735	0.05380049003965332	-0.17849077430249902	0.15884840516705506	1.4785487552982115	-0.08011888236519031	0.16601294493912225	1.7124532440942357	-0.05074519832643497	0.15667232792782806	1.5991210694443707	0.06529419444978621	0.0024505432211636893	1.3798793279251709	-0.10385305955362818	-0.06261196592834475	1.1230007886272064	-0.11316500641018151	-0.177877970555835	0.9957438143095326	0.03283670269834746	0.314663317059484	1.381365401742122	-0.09506584644354754	0.3839414262388222	1.1351388669224227	-0.08905194394477055	0.47098470923824654	1.0134131863784577	0.08850648033385594
436	8.72	0.15070722453717272	0.9061176226405703	-0.0940720410837312	0.04877187333533764	0.8940406029490352	-0.08588721638774759	0.00897685362527405	0.49397675689148446	-0.12275842565686819	-0.029325240079094404	0.09518622384215195	-0.1359816143471069	-0.08496524472689237	0.0455640395636694	0.04970795996539019	-0.11829039922961646	0.04897146474281847	-0.013217118005867829	-0.014419755761857899	0.04568599307351925	-0.17527192968712632	0.2532248465503312	0.8939287798456885	-0.07760052752163375	0.2863153528413171	0.49417663589336897	-0.11779257913285561	0.3141407332903428	0.09077860718742749	-0.1357710421265358	0.34932713126854265	0.0375435428376637	0.0513410964680569	0.38360071037595184	0.03753893891933297	-0.0037900578474106415	0.3009035914480382	0.04563022966949832	-0.17306705671623115	0.15723712578054885	1.4772143733320098	-0.07705827462353007	0.16748750572073084	1.7094387343090724	-0.054078822191056496	0.15169639015679895	1.5978462446974788	0.08897069875405211	0.0018863991996874935	1.375394644356757	-0.10177403934097712	-0.06875286334068777	1.1158212620393	-0.12150614406372041	-0.17831349144776273	1.0183713726202228	0.07756614934869796	0.3141771751658827	1.3822447622917724	-0.08226957378545943	0.3811484792275434	1.1335465866320267	-0.09398170811844014	0.46021125599439705	1.032594797806963	0.11932276799409046
437	8.74	0.14930455414644464	0.9034282599056329	-0.09322739520221489	0.04664731353974207	0.8930288543250652	-0.09736015079991067	0.007757795918012388	0.4911014055318328	-0.12865572100421466	-0.025762540893182237	0.09985571669824603	-0.14328164687496292	-0.08112276208378374	0.052010922722731175	0.04851403781322263	-0.11163925717389239	0.055019808893692526	-0.01621733155428799	-0.010275203228032184	0.05795109289991398	-0.1865338794728309	0.25348642054985976	0.892152964563082	-0.08627515830144523	0.28743753933504684	0.4913585703537465	-0.11802925692858394	0.3139707745575027	0.09885814016396555	-0.1348871487200337	0.3638706581979675	0.0496571201452724	0.047368913266960806	0.3983784249943271	0.05293384747392016	-0.008483574556259735	0.29957686675255507	0.05332309969599445	-0.1718729623694323	0.15854917123792792	1.4787276405407896	-0.07658195999262225	0.16569021776609782	1.7139510673490592	-0.052959459168366405	0.15383950439698432	1.5978249722684923	0.06810382428825025	0.0024397640222071546	1.377153244140629	-0.10417516831931249	-0.0698456311895878	1.116575586399577	-0.12137364224617579	-0.1673835277882934	1.0443156931509776	0.07698451217135217	0.3154342270641519	1.3825938336730486	-0.09708847286747138	0.3865836907380928	1.1369001793079159	-0.1024481852016523	0.4576758854938375	1.0555816189564777	0.1380548717131483
438	8.76	0.14943142574538	0.9021141057846463	-0.09496763080303895	0.04688440335340564	0.8927198999470658	-0.0900675877828815	0.007897277447073853	0.4946954077391952	-0.1261982617939527	-0.026980631768322806	0.10028612503477989	-0.14667071888644487	-0.07957765299678626	0.04898316179372611	0.04358608166433919	-0.11127714139925533	0.05407566668924926	-0.023848385132822964	-0.013352321565823706	0.057247402337825326	-0.18598600083880454	0.2547194501784921	0.8930947047535243	-0.08275300053488671	0.28683350213601244	0.49462083717467603	-0.11789727359858987	0.31457571682861085	0.10082483279735642	-0.13551387312587926	0.3617579932690652	0.051859493747563594	0.053272573933096264	0.3986053401943271	0.0559234746690777	-0.007784370716686357	0.29889069171663935	0.0550052050011061	-0.17407953268127546	0.1614634105589044	1.4801520182628902	-0.08279123997636395	0.16584873460864488	1.7138619828165562	-0.05934380293407552	0.15643402596096656	1.6004819371239842	0.06259444401702927	0.0014531478658325466	1.3786443287772818	-0.1004806330696285	-0.06603496857456588	1.1234760374815558	-0.11346330387694667	-0.15711787811301475	1.0665386936521637	0.09656948769432054	0.3165183295479072	1.3801778070106185	-0.09429510200235651	0.38646143466263044	1.138426181810568	-0.10365470565544642	0.4511733802305662	1.0734434082769786	0.13780693604006433
439	8.78	0.1514039934560048	0.9047044358601505	-0.08897086304424083	0.0473029389496701	0.894264477817355	-0.08831600306791076	0.009739170474026584	0.4942542111346468	-0.12777710851482826	-0.027653618480939616	0.09818870343335084	-0.14284383056810002	-0.08175078870410908	0.05109069679575611	0.04475461739495987	-0.11072759800980005	0.05336237265223357	-0.018600754503700107	-0.012813283091138127	0.0561655291967568	-0.181208074060145	0.2570228937692583	0.8930250769291931	-0.08411350089716844	0.2892246262644328	0.4945250053042726	-0.11901985545521183	0.3152796658731971	0.10008268790423247	-0.13444734603301745	0.36175963312659476	0.05010457286156779	0.04768311615359289	0.3964068131128391	0.05424856474062572	-0.007065967546293684	0.2997018293925318	0.052868312654295764	-0.17163156164277543	0.15920566301793468	1.4793604804369234	-0.08100208303985466	0.16638177086164027	1.714514436034056	-0.05791205919042764	0.15415856389121874	1.601213204785124	0.05744362509201752	0.0018685731582619798	1.3803366699622577	-0.09968328911833231	-0.06825528744814345	1.12697710302536	-0.12141572587068244	-0.15488287546968213	1.0843784472813476	0.11993378223714769	0.31571703789496847	1.3808572480539383	-0.09638161731234542	0.3859942705834546	1.1379552831153799	-0.10406736473573736	0.4466766453602447	1.0913678985550583	0.14523354989765647
440	8.8	0.15230391360902726	0.9042949996183933	-0.0865466478164845	0.05116251992083233	0.8928995791253074	-0.085594761200205	0.010872721712402715	0.49158639778735086	-0.1235769394007626	-0.029288799237113947	0.09692896197754512	-0.13048857387390844	-0.08240448477891506	0.044643780570303826	0.05566781952258084	-0.11607599905296331	0.0477356966866219	-0.009709993201777156	-0.014059307796816958	0.047491804227201034	-0.17697075735428813	0.2540739902073157	0.8938016194045206	-0.07649973985323671	0.28916602570312444	0.4920387831882087	-0.11622876664739076	0.31314109815149505	0.0867380979729891	-0.13612585408450315	0.35022277341709956	0.035160635260868656	0.05122598975751404	0.38346962863817957	0.035198302095028396	0.0010956980885707189	0.2998355056205552	0.042877742816209	-0.1744786595420492	0.1591390922743289	1.4771595418014596	-0.07591730631642879	0.1670549730941894	1.7097192689287202	-0.05770510790123506	0.1554238147418916	1.5979017370493258	0.08306446671190429	0.0040708591680857715	1.3805168839200812	-0.10025480222466565	-0.06469896372784951	1.1221271697912232	-0.11187843086934682	-0.15060981398468545	1.098000993364459	0.1363230785745865	0.31691941506943483	1.3821121626959127	-0.08430782816932982	0.37968298383779153	1.1382092241450819	-0.09499976006874984	0.42947106158527687	1.0971393654462511	0.16814602684537122
441	8.82	0.14997439057353282	0.9017525509671513	-0.08148689362660018	0.04853427196977004	0.8913707808711304	-0.08089298452577967	0.00970231928986211	0.4935727052184256	-0.12383896374213632	-0.02693215495347054	0.09942240488611825	-0.14067074638506155	-0.07925814874962783	0.05100658932567236	0.04595251023002721	-0.11133331917824352	0.053330160347197716	-0.02092165003116899	-0.01122306159628906	0.05886683678467242	-0.17838527135466323	0.2560122920105043	0.8932151221266356	-0.07943108512743707	0.2912884711029178	0.4954710967874954	-0.11725039025936183	0.3143126686287833	0.09722337378097191	-0.14027673757303122	0.3641746763519281	0.04957016445823294	0.037863637636587705	0.39765525958821	0.052150579979331306	-0.015072020708414352	0.2969103499101357	0.048406782258140525	-0.16944319856061352	0.15929698527847352	1.4791714876398308	-0.07687127213073133	0.16505068113744084	1.7137030219422473	-0.05660918742906062	0.15242118386180808	1.6016221047885155	0.05762442612318467	0.005603135799950206	1.3799320988411845	-0.09762267117959747	-0.06851078057063589	1.127458922903232	-0.10594601815266462	-0.15481011521999666	1.1339037642034615	0.14246149397988603	0.31584110019520506	1.3826443114573617	-0.09107356426533757	0.3863287818578371	1.1383658185601238	-0.10820086791380755	0.43637704280010126	1.1227246516718816	0.14797766539572554
